<mxfile host="app.diagrams.net" modified="2023-04-05T10:49:09.521Z" agent="Mozilla/5.0 (Macintosh; Intel Mac OS X 10_15_7) AppleWebKit/537.36 (KHTML, like Gecko) Chrome/111.0.0.0 Safari/537.36" etag="mcUfg_j1octEOue5NL-Q" version="21.1.2" type="github">
  <diagram name="Page-1" id="74e2e168-ea6b-b213-b513-2b3c1d86103e">
    <mxGraphModel dx="1242" dy="800" grid="1" gridSize="10" guides="1" tooltips="1" connect="1" arrows="1" fold="1" page="1" pageScale="1" pageWidth="1100" pageHeight="850" background="none" math="0" shadow="0">
      <root>
        <mxCell id="0" />
        <mxCell id="1" parent="0" />
        <mxCell id="77e6c97f196da883-1" value="&lt;font style=&quot;font-size: 18px;&quot;&gt;Unified Data Model &amp;amp; Data Flow&lt;/font&gt;" style="swimlane;html=1;childLayout=stackLayout;startSize=40;rounded=0;shadow=0;labelBackgroundColor=none;strokeWidth=1;fontFamily=Verdana;fontSize=8;align=center;" parent="1" vertex="1">
          <mxGeometry x="70" y="10" width="890" height="700" as="geometry" />
        </mxCell>
        <mxCell id="77e6c97f196da883-2" value="1. (Upstream) Data Sources" style="swimlane;html=1;startSize=50;" parent="77e6c97f196da883-1" vertex="1">
          <mxGeometry y="40" width="180" height="660" as="geometry" />
        </mxCell>
        <mxCell id="jtK_wWIAgHVjvPOW0OnH-35" value="" style="rounded=1;whiteSpace=wrap;html=1;" vertex="1" parent="77e6c97f196da883-2">
          <mxGeometry x="30" y="190" width="120" height="370" as="geometry" />
        </mxCell>
        <mxCell id="jtK_wWIAgHVjvPOW0OnH-1" value="Starting by mapping upstream data sources and subscribe/load them to shared resources. These data sources will be used used in transformation for our data pipelines subsequent layers" style="text;html=1;strokeColor=none;fillColor=none;align=center;verticalAlign=middle;whiteSpace=wrap;rounded=0;" vertex="1" parent="77e6c97f196da883-2">
          <mxGeometry x="10" y="50" width="160" height="130" as="geometry" />
        </mxCell>
        <mxCell id="jtK_wWIAgHVjvPOW0OnH-3" value="" style="shape=image;html=1;verticalAlign=top;verticalLabelPosition=bottom;labelBackgroundColor=#ffffff;imageAspect=0;aspect=fixed;image=https://cdn1.iconfinder.com/data/icons/heroicons-solid/20/dots-horizontal-128.png" vertex="1" parent="77e6c97f196da883-2">
          <mxGeometry x="73" y="530" width="34" height="34" as="geometry" />
        </mxCell>
        <mxCell id="jtK_wWIAgHVjvPOW0OnH-46" value="Booker" style="shape=cylinder3;whiteSpace=wrap;html=1;boundedLbl=1;backgroundOutline=1;size=15;" vertex="1" parent="77e6c97f196da883-2">
          <mxGeometry x="60" y="200" width="60" height="80" as="geometry" />
        </mxCell>
        <mxCell id="jtK_wWIAgHVjvPOW0OnH-49" value="dg_prod" style="shape=cylinder3;whiteSpace=wrap;html=1;boundedLbl=1;backgroundOutline=1;size=15;" vertex="1" parent="77e6c97f196da883-2">
          <mxGeometry x="60" y="320" width="60" height="80" as="geometry" />
        </mxCell>
        <mxCell id="jtK_wWIAgHVjvPOW0OnH-50" value="intl_fin" style="shape=cylinder3;whiteSpace=wrap;html=1;boundedLbl=1;backgroundOutline=1;size=15;" vertex="1" parent="77e6c97f196da883-2">
          <mxGeometry x="60" y="440" width="60" height="80" as="geometry" />
        </mxCell>
        <mxCell id="jtK_wWIAgHVjvPOW0OnH-62" value="" style="endArrow=classic;html=1;rounded=0;entryX=0.354;entryY=0.998;entryDx=0;entryDy=0;entryPerimeter=0;" edge="1" parent="77e6c97f196da883-2" target="jtK_wWIAgHVjvPOW0OnH-39">
          <mxGeometry width="50" height="50" relative="1" as="geometry">
            <mxPoint x="150" y="320" as="sourcePoint" />
            <mxPoint x="468" y="420" as="targetPoint" />
            <Array as="points">
              <mxPoint x="190" y="320" />
              <mxPoint x="190" y="430" />
              <mxPoint x="190" y="530" />
              <mxPoint x="320" y="530" />
              <mxPoint x="450" y="530" />
            </Array>
          </mxGeometry>
        </mxCell>
        <mxCell id="77e6c97f196da883-3" value="2. Intermediate Transformation&lt;br&gt;&lt;span style=&quot;font-weight: normal;&quot;&gt;&lt;i&gt;(Staging &amp;amp; Integration Layer)&amp;nbsp;&lt;/i&gt;&lt;/span&gt;" style="swimlane;html=1;startSize=50;" parent="77e6c97f196da883-1" vertex="1">
          <mxGeometry x="180" y="40" width="200" height="660" as="geometry">
            <mxRectangle x="160" y="20" width="40" height="730" as="alternateBounds" />
          </mxGeometry>
        </mxCell>
        <mxCell id="jtK_wWIAgHVjvPOW0OnH-36" value="" style="rounded=1;whiteSpace=wrap;html=1;" vertex="1" parent="77e6c97f196da883-3">
          <mxGeometry x="40" y="190" width="120" height="310" as="geometry" />
        </mxCell>
        <mxCell id="jtK_wWIAgHVjvPOW0OnH-12" value="Build intermediate layer (staging), if needed, to support Program data needs (ie. dimension tables, joint raw data tables, data cleansing). The datasets in these layer can be used for further transformations" style="text;html=1;strokeColor=none;fillColor=none;align=center;verticalAlign=middle;whiteSpace=wrap;rounded=0;" vertex="1" parent="77e6c97f196da883-3">
          <mxGeometry x="10" y="50" width="180" height="130" as="geometry" />
        </mxCell>
        <mxCell id="jtK_wWIAgHVjvPOW0OnH-22" value="" style="shape=image;html=1;verticalAlign=top;verticalLabelPosition=bottom;labelBackgroundColor=#ffffff;imageAspect=0;aspect=fixed;image=https://cdn1.iconfinder.com/data/icons/heroicons-solid/20/dots-horizontal-128.png" vertex="1" parent="77e6c97f196da883-3">
          <mxGeometry x="83" y="470" width="34" height="34" as="geometry" />
        </mxCell>
        <mxCell id="jtK_wWIAgHVjvPOW0OnH-51" value="SPX" style="shape=cylinder3;whiteSpace=wrap;html=1;boundedLbl=1;backgroundOutline=1;size=15;" vertex="1" parent="77e6c97f196da883-3">
          <mxGeometry x="70" y="200" width="60" height="80" as="geometry" />
        </mxCell>
        <mxCell id="jtK_wWIAgHVjvPOW0OnH-53" value="PFS" style="shape=cylinder3;whiteSpace=wrap;html=1;boundedLbl=1;backgroundOutline=1;size=15;" vertex="1" parent="77e6c97f196da883-3">
          <mxGeometry x="70" y="295" width="60" height="80" as="geometry" />
        </mxCell>
        <mxCell id="jtK_wWIAgHVjvPOW0OnH-54" value="CSC" style="shape=cylinder3;whiteSpace=wrap;html=1;boundedLbl=1;backgroundOutline=1;size=15;" vertex="1" parent="77e6c97f196da883-3">
          <mxGeometry x="70" y="390" width="60" height="80" as="geometry" />
        </mxCell>
        <mxCell id="77e6c97f196da883-4" value="3. Final Transformation&lt;br&gt;&lt;i style=&quot;--tw-border-spacing-x: 0; --tw-border-spacing-y: 0; --tw-translate-x: 0; --tw-translate-y: 0; --tw-rotate: 0; --tw-skew-x: 0; --tw-skew-y: 0; --tw-scale-x: 1; --tw-scale-y: 1; --tw-pan-x: ; --tw-pan-y: ; --tw-pinch-zoom: ; --tw-scroll-snap-strictness: proximity; --tw-ordinal: ; --tw-slashed-zero: ; --tw-numeric-figure: ; --tw-numeric-spacing: ; --tw-numeric-fraction: ; --tw-ring-inset: ; --tw-ring-offset-width: 0px; --tw-ring-offset-color: #fff; --tw-ring-color: rgb(59 130 246 / 0.5); --tw-ring-offset-shadow: 0 0 #0000; --tw-ring-shadow: 0 0 #0000; --tw-shadow: 0 0 #0000; --tw-shadow-colored: 0 0 #0000; --tw-blur: ; --tw-brightness: ; --tw-contrast: ; --tw-grayscale: ; --tw-hue-rotate: ; --tw-invert: ; --tw-saturate: ; --tw-sepia: ; --tw-drop-shadow: ; --tw-backdrop-blur: ; --tw-backdrop-brightness: ; --tw-backdrop-contrast: ; --tw-backdrop-grayscale: ; --tw-backdrop-hue-rotate: ; --tw-backdrop-invert: ; --tw-backdrop-opacity: ; --tw-backdrop-saturate: ; --tw-backdrop-sepia: ; border-color: var(--border-color); font-weight: 400;&quot;&gt;(Staging &amp;amp; Integration Layer - &lt;br&gt;Metrics Datasets)&lt;/i&gt;" style="swimlane;html=1;startSize=50;" parent="77e6c97f196da883-1" vertex="1">
          <mxGeometry x="380" y="40" width="175" height="660" as="geometry" />
        </mxCell>
        <mxCell id="jtK_wWIAgHVjvPOW0OnH-39" value="" style="rounded=1;whiteSpace=wrap;html=1;" vertex="1" parent="77e6c97f196da883-4">
          <mxGeometry x="27.5" y="190" width="120" height="230" as="geometry" />
        </mxCell>
        <mxCell id="jtK_wWIAgHVjvPOW0OnH-19" value="The final transformation layer will be used to generate metric specific datasets. These datasets will follow a standard design that will allow for further aggregation and unioning&amp;nbsp;" style="text;html=1;strokeColor=none;fillColor=none;align=center;verticalAlign=middle;whiteSpace=wrap;rounded=0;" vertex="1" parent="77e6c97f196da883-4">
          <mxGeometry x="7.5" y="50" width="160" height="140" as="geometry" />
        </mxCell>
        <mxCell id="jtK_wWIAgHVjvPOW0OnH-23" value="" style="shape=image;html=1;verticalAlign=top;verticalLabelPosition=bottom;labelBackgroundColor=#ffffff;imageAspect=0;aspect=fixed;image=https://cdn1.iconfinder.com/data/icons/heroicons-solid/20/dots-horizontal-128.png" vertex="1" parent="77e6c97f196da883-4">
          <mxGeometry x="70.5" y="390" width="34" height="34" as="geometry" />
        </mxCell>
        <mxCell id="jtK_wWIAgHVjvPOW0OnH-55" value="SIR Metric" style="shape=cylinder3;whiteSpace=wrap;html=1;boundedLbl=1;backgroundOutline=1;size=15;" vertex="1" parent="77e6c97f196da883-4">
          <mxGeometry x="57.5" y="200" width="60" height="80" as="geometry" />
        </mxCell>
        <mxCell id="jtK_wWIAgHVjvPOW0OnH-56" value="CIR Metric" style="shape=cylinder3;whiteSpace=wrap;html=1;boundedLbl=1;backgroundOutline=1;size=15;" vertex="1" parent="77e6c97f196da883-4">
          <mxGeometry x="57.5" y="300" width="60" height="80" as="geometry" />
        </mxCell>
        <mxCell id="jtK_wWIAgHVjvPOW0OnH-65" value="" style="endArrow=classic;html=1;rounded=0;" edge="1" parent="77e6c97f196da883-4">
          <mxGeometry width="50" height="50" relative="1" as="geometry">
            <mxPoint x="-40" y="270" as="sourcePoint" />
            <mxPoint x="27.5" y="270" as="targetPoint" />
            <Array as="points">
              <mxPoint x="-22.5" y="270" />
            </Array>
          </mxGeometry>
        </mxCell>
        <mxCell id="77e6c97f196da883-5" value="4. Data Storage&lt;br&gt;&lt;span style=&quot;font-weight: normal;&quot;&gt;&lt;i&gt;(Aggregation layer)&lt;/i&gt;&lt;/span&gt;" style="swimlane;html=1;startSize=50;" parent="77e6c97f196da883-1" vertex="1">
          <mxGeometry x="555" y="40" width="160" height="660" as="geometry" />
        </mxCell>
        <mxCell id="jtK_wWIAgHVjvPOW0OnH-40" value="" style="rounded=1;whiteSpace=wrap;html=1;" vertex="1" parent="77e6c97f196da883-5">
          <mxGeometry x="20" y="190" width="120" height="130" as="geometry" />
        </mxCell>
        <mxCell id="jtK_wWIAgHVjvPOW0OnH-21" value="In the aggregation layer, we will be unioning metrics dataset to build a single source of truth for our standard and recurring reporting solutions (i.e. WBR/P0).&amp;nbsp;" style="text;html=1;strokeColor=none;fillColor=none;align=center;verticalAlign=middle;whiteSpace=wrap;rounded=0;" vertex="1" parent="77e6c97f196da883-5">
          <mxGeometry x="5" y="50" width="150" height="140" as="geometry" />
        </mxCell>
        <mxCell id="jtK_wWIAgHVjvPOW0OnH-24" value="" style="shape=image;html=1;verticalAlign=top;verticalLabelPosition=bottom;labelBackgroundColor=#ffffff;imageAspect=0;aspect=fixed;image=https://cdn1.iconfinder.com/data/icons/heroicons-solid/20/dots-horizontal-128.png" vertex="1" parent="77e6c97f196da883-5">
          <mxGeometry x="63" y="286" width="34" height="34" as="geometry" />
        </mxCell>
        <mxCell id="jtK_wWIAgHVjvPOW0OnH-57" value="Metrics Dictionary" style="shape=cylinder3;whiteSpace=wrap;html=1;boundedLbl=1;backgroundOutline=1;size=15;dashed=1;dashPattern=1 1;" vertex="1" parent="77e6c97f196da883-5">
          <mxGeometry x="50" y="370" width="60" height="80" as="geometry" />
        </mxCell>
        <mxCell id="jtK_wWIAgHVjvPOW0OnH-58" value="PSC metrics" style="shape=cylinder3;whiteSpace=wrap;html=1;boundedLbl=1;backgroundOutline=1;size=15;" vertex="1" parent="77e6c97f196da883-5">
          <mxGeometry x="50" y="200" width="60" height="80" as="geometry" />
        </mxCell>
        <mxCell id="jtK_wWIAgHVjvPOW0OnH-67" value="" style="endArrow=classic;startArrow=classic;html=1;rounded=0;exitX=1;exitY=0.75;exitDx=0;exitDy=0;strokeColor=default;shadow=0;dashed=1;dashPattern=1 1;" edge="1" parent="77e6c97f196da883-5" source="jtK_wWIAgHVjvPOW0OnH-39">
          <mxGeometry width="50" height="50" relative="1" as="geometry">
            <mxPoint y="460" as="sourcePoint" />
            <mxPoint x="50" y="410" as="targetPoint" />
            <Array as="points">
              <mxPoint x="15" y="363" />
              <mxPoint x="15" y="410" />
            </Array>
          </mxGeometry>
        </mxCell>
        <mxCell id="jtK_wWIAgHVjvPOW0OnH-68" value="" style="endArrow=classic;startArrow=classic;html=1;rounded=0;exitX=0.5;exitY=1;exitDx=0;exitDy=0;strokeColor=default;shadow=0;dashed=1;dashPattern=1 1;entryX=0.5;entryY=0;entryDx=0;entryDy=0;entryPerimeter=0;" edge="1" parent="77e6c97f196da883-5" source="jtK_wWIAgHVjvPOW0OnH-24" target="jtK_wWIAgHVjvPOW0OnH-57">
          <mxGeometry width="50" height="50" relative="1" as="geometry">
            <mxPoint x="-17" y="373" as="sourcePoint" />
            <mxPoint x="25" y="470" as="targetPoint" />
            <Array as="points" />
          </mxGeometry>
        </mxCell>
        <mxCell id="77e6c97f196da883-6" value="5. Information Layer&lt;br&gt;&lt;span style=&quot;font-weight: normal;&quot;&gt;&lt;i&gt;(reporting / analytics)&lt;/i&gt;&lt;/span&gt;" style="swimlane;html=1;startSize=50;" parent="77e6c97f196da883-1" vertex="1">
          <mxGeometry x="715" y="40" width="175" height="660" as="geometry" />
        </mxCell>
        <mxCell id="jtK_wWIAgHVjvPOW0OnH-14" value="" style="rounded=1;whiteSpace=wrap;html=1;" vertex="1" parent="77e6c97f196da883-6">
          <mxGeometry x="27.5" y="190" width="120" height="310" as="geometry" />
        </mxCell>
        <mxCell id="jtK_wWIAgHVjvPOW0OnH-15" value="" style="sketch=0;points=[[0,0,0],[0.25,0,0],[0.5,0,0],[0.75,0,0],[1,0,0],[0,1,0],[0.25,1,0],[0.5,1,0],[0.75,1,0],[1,1,0],[0,0.25,0],[0,0.5,0],[0,0.75,0],[1,0.25,0],[1,0.5,0],[1,0.75,0]];outlineConnect=0;fontColor=#232F3E;gradientColor=#945DF2;gradientDirection=north;fillColor=#5A30B5;strokeColor=#ffffff;dashed=0;verticalLabelPosition=bottom;verticalAlign=top;align=center;html=1;fontSize=12;fontStyle=0;aspect=fixed;shape=mxgraph.aws4.resourceIcon;resIcon=mxgraph.aws4.quicksight;" vertex="1" parent="77e6c97f196da883-6">
          <mxGeometry x="65.6" y="200" width="44" height="44" as="geometry" />
        </mxCell>
        <mxCell id="jtK_wWIAgHVjvPOW0OnH-16" value="" style="shadow=0;dashed=0;html=1;strokeColor=none;fillColor=#EF8F21;labelPosition=center;verticalLabelPosition=bottom;verticalAlign=top;align=center;outlineConnect=0;shape=mxgraph.veeam.reporting;" vertex="1" parent="77e6c97f196da883-6">
          <mxGeometry x="64.80000000000003" y="260" width="44.8" height="44.8" as="geometry" />
        </mxCell>
        <mxCell id="jtK_wWIAgHVjvPOW0OnH-17" value="" style="shape=image;html=1;verticalAlign=top;verticalLabelPosition=bottom;labelBackgroundColor=#ffffff;imageAspect=0;aspect=fixed;image=https://cdn3.iconfinder.com/data/icons/document-icons-2/30/647714-excel-128.png" vertex="1" parent="77e6c97f196da883-6">
          <mxGeometry x="65.5" y="320" width="43" height="43" as="geometry" />
        </mxCell>
        <mxCell id="jtK_wWIAgHVjvPOW0OnH-18" value="WBR/P0" style="rounded=0;whiteSpace=wrap;html=1;fillColor=#ffe6cc;strokeColor=#d79b00;" vertex="1" parent="77e6c97f196da883-6">
          <mxGeometry x="54.75" y="380" width="66.5" height="40" as="geometry" />
        </mxCell>
        <mxCell id="jtK_wWIAgHVjvPOW0OnH-20" value="SAPIENT" style="rounded=0;whiteSpace=wrap;html=1;fillColor=#f8cecc;strokeColor=#b85450;" vertex="1" parent="77e6c97f196da883-6">
          <mxGeometry x="53.75" y="430" width="66.5" height="40" as="geometry" />
        </mxCell>
        <mxCell id="jtK_wWIAgHVjvPOW0OnH-25" value="Our customer facing products layer, which will include XBR reporting, self-serve solution (Sapient) and other types of Deep Dive analytical solutions (i.e. QuickSight Dashboards)" style="text;html=1;strokeColor=none;fillColor=none;align=center;verticalAlign=middle;whiteSpace=wrap;rounded=0;" vertex="1" parent="77e6c97f196da883-6">
          <mxGeometry y="50" width="170" height="120" as="geometry" />
        </mxCell>
        <mxCell id="jtK_wWIAgHVjvPOW0OnH-59" value="" style="endArrow=classic;html=1;rounded=0;" edge="1" parent="77e6c97f196da883-1">
          <mxGeometry width="50" height="50" relative="1" as="geometry">
            <mxPoint x="150" y="310" as="sourcePoint" />
            <mxPoint x="220" y="310" as="targetPoint" />
            <Array as="points">
              <mxPoint x="170" y="310" />
            </Array>
          </mxGeometry>
        </mxCell>
        <mxCell id="jtK_wWIAgHVjvPOW0OnH-61" value="" style="endArrow=classic;html=1;rounded=0;exitX=0.996;exitY=0.35;exitDx=0;exitDy=0;exitPerimeter=0;entryX=-0.008;entryY=0.612;entryDx=0;entryDy=0;entryPerimeter=0;" edge="1" parent="77e6c97f196da883-1" source="jtK_wWIAgHVjvPOW0OnH-39" target="jtK_wWIAgHVjvPOW0OnH-40">
          <mxGeometry width="50" height="50" relative="1" as="geometry">
            <mxPoint x="527.5" y="340" as="sourcePoint" />
            <mxPoint x="597.5" y="340" as="targetPoint" />
          </mxGeometry>
        </mxCell>
        <mxCell id="jtK_wWIAgHVjvPOW0OnH-66" value="" style="endArrow=classic;html=1;rounded=0;exitX=0.992;exitY=0.619;exitDx=0;exitDy=0;exitPerimeter=0;" edge="1" parent="77e6c97f196da883-1" source="jtK_wWIAgHVjvPOW0OnH-40">
          <mxGeometry width="50" height="50" relative="1" as="geometry">
            <mxPoint x="700" y="310" as="sourcePoint" />
            <mxPoint x="740" y="310" as="targetPoint" />
          </mxGeometry>
        </mxCell>
        <mxCell id="jtK_wWIAgHVjvPOW0OnH-64" value="" style="endArrow=classic;html=1;rounded=0;entryX=0.004;entryY=0.476;entryDx=0;entryDy=0;entryPerimeter=0;" edge="1" parent="77e6c97f196da883-1" target="jtK_wWIAgHVjvPOW0OnH-14">
          <mxGeometry width="50" height="50" relative="1" as="geometry">
            <mxPoint x="480" y="460" as="sourcePoint" />
            <mxPoint x="575" y="379.5" as="targetPoint" />
            <Array as="points">
              <mxPoint x="480" y="570" />
              <mxPoint x="730" y="570" />
              <mxPoint x="730" y="480" />
              <mxPoint x="730" y="378" />
            </Array>
          </mxGeometry>
        </mxCell>
        <mxCell id="jtK_wWIAgHVjvPOW0OnH-69" value="" style="endArrow=none;html=1;rounded=0;strokeWidth=0.5;" edge="1" parent="1">
          <mxGeometry width="50" height="50" relative="1" as="geometry">
            <mxPoint x="70" y="230" as="sourcePoint" />
            <mxPoint x="960" y="230" as="targetPoint" />
          </mxGeometry>
        </mxCell>
      </root>
    </mxGraphModel>
  </diagram>
</mxfile>
